<?xml version="1.0" encoding="UTF-8" standalone="no"?>
<!DOCTYPE svg PUBLIC "-//W3C//DTD SVG 1.1//EN" "http://www.w3.org/Graphics/SVG/1.1/DTD/svg11.dtd">
<svg width="100%" height="100%" viewBox="0 0 188 53" version="1.1" xmlns="http://www.w3.org/2000/svg" xmlns:xlink="http://www.w3.org/1999/xlink" xml:space="preserve" xmlns:serif="http://www.serif.com/" style="fill-rule:evenodd;clip-rule:evenodd;stroke-linejoin:round;stroke-miterlimit:2;">
    <g transform="matrix(1,0,0,1,-87,0)">
        <g id="Artboard2" transform="matrix(1,0,0,1,-0.534062,286.968547)">
            <rect x="87.534" y="-286.969" width="187.794" height="52.487" style="fill:none;"/>
            <g transform="matrix(0.036523,0,0,0.036523,103.966914,-276.760219)">
                <g transform="matrix(4.166667,0,0,4.166667,0,-263.791667)">
                    <path d="M173.95,137.51L173.95,137.16C173.95,102.08 200.4,73.33 238.31,73.33C261.6,73.33 275.52,81.09 286.98,92.37L269.71,112.29C260.18,103.66 250.48,98.36 238.14,98.36C217.34,98.36 202.34,115.64 202.34,136.81L202.34,137.16C202.34,158.32 216.98,175.95 238.14,175.95C252.25,175.95 260.89,170.31 270.58,161.49L287.87,178.96C275.17,192.53 261.06,200.99 237.26,200.99C200.93,200.99 173.95,172.95 173.95,137.51ZM295.27,137.51L295.27,137.16C295.27,102.08 322.96,73.33 361.05,73.33C399.15,73.33 426.47,101.72 426.47,136.81L426.47,137.16C426.47,172.25 398.79,200.99 360.7,200.99C322.61,200.99 295.27,172.6 295.27,137.51ZM398.08,137.51L398.08,137.16C398.08,116 382.56,98.36 360.7,98.36C338.83,98.36 323.67,115.64 323.67,136.81L323.67,137.16C323.67,158.32 339.19,175.95 361.05,175.95C382.91,175.95 398.08,158.68 398.08,137.51ZM443.4,145.98L443.4,75.44L470.55,75.44L470.55,145.28C470.55,165.38 480.6,175.78 497.18,175.78C513.76,175.78 523.81,165.73 523.81,146.16L523.81,75.44L550.97,75.44L550.97,145.1C550.97,182.48 529.98,200.82 496.82,200.82C463.68,200.82 443.4,182.3 443.4,145.98ZM564.9,180.89L580.94,161.67C592.05,170.84 603.69,176.66 617.8,176.66C628.9,176.66 635.6,172.26 635.6,165.03L635.6,164.68C635.6,157.79 631.37,154.27 610.75,148.97C585.88,142.63 569.83,135.76 569.83,111.24L569.83,110.88C569.83,88.48 587.82,73.68 613.04,73.68C631.02,73.68 646.36,79.32 658.89,89.37L644.78,109.83C633.84,102.25 623.09,97.67 612.69,97.67C602.28,97.67 596.82,102.42 596.82,108.41L596.82,108.77C596.82,116.89 602.1,119.52 623.44,124.99C648.48,131.52 662.59,140.51 662.59,162.03L662.59,162.38C662.59,186.89 643.9,200.65 617.27,200.65C598.58,200.65 579.71,194.11 564.9,180.89ZM709.32,75.44L709.32,198.87L682.17,198.87L682.17,75.44L709.32,75.44ZM734.88,75.44L759.92,75.44L817.76,151.45L817.76,75.44L844.57,75.44L844.57,198.88L821.47,198.88L761.69,120.41L761.69,198.88L734.88,198.88L734.88,75.44ZM863.43,137.51L863.43,137.16C863.43,102.07 891.12,73.32 929.21,73.32C967.3,73.32 994.63,101.71 994.63,136.81L994.63,137.16C994.63,172.25 966.94,200.99 928.86,200.99C890.77,200.99 863.43,172.6 863.43,137.51ZM966.24,137.51L966.24,137.16C966.24,115.99 950.73,98.36 928.86,98.36C906.99,98.36 891.83,115.64 891.83,136.81L891.83,137.16C891.83,158.32 907.35,175.95 929.21,175.95C951.08,175.95 966.24,158.68 966.24,137.51Z" style="fill:white;"/>
                </g>
                <g transform="matrix(4.166667,0,0,4.166667,0,417.833333)">
                    <path d="M77.29,106.47C77.29,106.47 52.46,98.88 53.04,74.94C53.62,50.97 76.41,37.83 85.17,33.45C93.94,29.07 126.65,17.38 130.17,-10.07C130.17,-10.07 150.9,5.11 153.53,34.62C156.16,64.12 142.43,86.04 142.43,86.04C142.43,86.04 123.15,120.79 77.29,106.47Z" style="fill:rgb(96,189,229);fill-rule:nonzero;"/>
                </g>
                <g transform="matrix(4.166667,0,0,4.166667,0,-67.791667)">
                    <path d="M46.77,210.47C46.77,210.47 26.03,175.71 61.07,150.87C96.14,126.04 116.58,128.68 118.34,92.75C120.09,56.81 93.22,51.85 116,16.8C116,16.8 75.69,18.84 77.44,64.11C77.44,64.11 76.57,36.95 44.43,37.53C44.43,37.53 75.98,62.36 43.26,88.94C43.26,88.94 28.66,75.8 39.76,63.83C39.76,63.83 1.5,75.21 0.32,132.19C-0.84,189.14 28.07,206.68 46.77,210.47Z" style="fill:rgb(239,73,35);fill-rule:nonzero;"/>
                </g>
                <g transform="matrix(4.166667,0,0,4.166667,0,30.75)">
                    <path d="M26.32,155.86C26.32,155.86 14.05,119.63 50.86,100.94C87.66,82.25 108.98,78.45 95.85,47.76C95.85,47.76 101.11,67.34 74.23,72.01C74.23,72.01 83.58,60.03 71.3,49.23C71.3,49.23 75.69,69.97 43.55,82.25C11.43,94.51 11.13,138.33 26.32,155.86Z" style="fill:rgb(247,142,40);fill-rule:nonzero;"/>
                </g>
                <g transform="matrix(4.166667,0,0,4.166667,0,336.291667)">
                    <path d="M127.52,42.43C127.52,42.43 100.61,60.94 87.15,65.99C73.69,71.04 70.33,86.73 84.34,87.3C98.36,87.86 123.04,71.59 127.52,42.43Z" style="fill:rgb(156,219,240);fill-rule:nonzero;"/>
                </g>
                <g transform="matrix(4.166667,0,0,4.166667,0,37.958333)">
                    <path d="M992,12.81L992,11.29L1002.8,11.29L1002.8,12.81L998.29,12.81L998.29,24.79L996.5,24.79L996.5,12.81L992,12.81ZM1006.78,11.29L1011.04,22.64L1015.31,11.29L1017.77,11.29L1017.77,24.79L1016.07,24.79L1016.07,13.56L1016.03,13.56L1011.81,24.79L1010.28,24.79L1006.07,13.56L1006.02,13.56L1006.02,24.79L1004.33,24.79L1004.33,11.29L1006.78,11.29ZM215.5,168.34C215.5,173.37 213.51,176.61 209.52,178.08L217.47,189.3L208.85,189.3L201.89,179.29L197.03,179.29L197.03,189.3L190.03,189.3L190.03,157.91L201.93,157.91C206.81,157.92 210.29,158.74 212.38,160.38C214.46,162.03 215.5,164.69 215.5,168.34ZM207.05,172.06C207.92,171.28 208.36,170.04 208.36,168.35C208.36,166.66 207.91,165.51 207.01,164.88C206.11,164.25 204.54,163.93 202.29,163.93L197.03,163.93L197.03,173.22L202.15,173.22C204.56,173.22 206.19,172.83 207.05,172.06ZM245.31,157.91L245.31,164.15L229.68,164.15L229.68,170.62L243.74,170.62L243.74,176.59L229.68,176.59L229.68,183.11L245.81,183.11L245.81,189.3L222.68,189.3L222.68,157.91L245.31,157.91ZM259.38,164.18C258.71,164.73 258.38,165.47 258.38,166.38C258.38,167.29 258.79,168.02 259.6,168.55C260.43,169.09 262.33,169.73 265.31,170.46C268.28,171.2 270.6,172.3 272.25,173.76C273.9,175.23 274.72,177.37 274.72,180.18C274.72,183 273.66,185.29 271.55,187.04C269.44,188.79 266.67,189.66 263.22,189.66C258.25,189.66 253.78,187.82 249.8,184.14L253.98,179.02C257.36,181.99 260.49,183.47 263.36,183.47C264.65,183.46 265.66,183.19 266.39,182.64C267.12,182.09 267.49,181.34 267.5,180.39C267.49,179.44 267.1,178.7 266.32,178.15C265.54,177.59 264,177.03 261.7,176.46C258.04,175.59 255.37,174.46 253.68,173.08C251.99,171.68 251.14,169.49 251.14,166.52C251.15,163.54 252.22,161.24 254.35,159.61C256.49,158 259.16,157.2 262.37,157.2C264.46,157.2 266.56,157.56 268.66,158.27C270.75,159 272.58,160.01 274.14,161.32L270.59,166.44C267.86,164.38 265.05,163.35 262.15,163.35C260.98,163.35 260.05,163.63 259.38,164.18ZM293.72,163.98L293.72,189.31L286.71,189.31L286.71,163.98L277.82,163.98L277.82,157.92L302.61,157.92L302.61,163.98L293.72,163.98ZM333.29,184.97C330.11,188.07 326.2,189.62 321.57,189.61C316.93,189.62 313.02,188.07 309.84,184.97C306.67,181.87 305.09,178.02 305.09,173.41C305.09,168.8 306.67,164.94 309.84,161.84C313.02,158.75 316.93,157.2 321.57,157.19C326.2,157.2 330.11,158.75 333.29,161.84C336.46,164.94 338.05,168.8 338.05,173.41C338.05,178.02 336.46,181.87 333.29,184.97ZM330.91,173.43C330.91,170.63 330.01,168.24 328.22,166.26C326.42,164.28 324.21,163.29 321.59,163.29C318.96,163.29 316.76,164.28 314.97,166.26C313.17,168.24 312.27,170.63 312.27,173.43C312.27,176.22 313.17,178.6 314.97,180.57C316.76,182.52 318.96,183.5 321.59,183.5C324.21,183.5 326.42,182.52 328.22,180.57C330.01,178.6 330.91,176.22 330.91,173.43ZM369.44,168.34C369.44,173.37 367.45,176.61 363.46,178.08L371.41,189.3L362.78,189.3L355.83,179.29L350.97,179.29L350.97,189.3L343.97,189.3L343.97,157.91L355.87,157.91C360.75,157.92 364.23,158.74 366.32,160.38C368.4,162.03 369.44,164.69 369.44,168.34ZM360.99,172.06C361.86,171.28 362.3,170.04 362.3,168.35C362.3,166.66 361.85,165.51 360.95,164.88C360.05,164.25 358.48,163.93 356.23,163.93L350.97,163.93L350.97,173.22L356.09,173.22C358.5,173.22 360.13,172.83 360.99,172.06ZM398.99,189.31L396.07,182.52L382.91,182.52L379.99,189.31L372.54,189.31L386.09,157.91L392.88,157.91L406.44,189.31L398.99,189.31ZM389.51,167.25L385.56,176.37L393.42,176.37L389.51,167.25ZM421.08,163.98L421.08,189.31L414.07,189.31L414.07,163.98L405.19,163.98L405.19,157.91L429.98,157.91L429.98,163.98L421.08,163.98ZM442.1,157.91L442.1,189.3L435.09,189.3L435.09,157.91L442.1,157.91ZM476.23,184.97C473.05,188.06 469.14,189.61 464.51,189.61C459.87,189.61 455.96,188.06 452.78,184.97C449.61,181.87 448.03,178.02 448.02,173.41C448.03,168.8 449.61,164.94 452.78,161.84C455.96,158.75 459.87,157.2 464.51,157.19C469.14,157.2 473.05,158.75 476.23,161.84C479.4,164.94 480.99,168.8 480.99,173.41C480.99,178.02 479.4,181.87 476.23,184.97ZM473.85,173.43C473.84,170.63 472.94,168.24 471.15,166.26C469.36,164.28 467.15,163.29 464.53,163.29C461.9,163.29 459.69,164.28 457.9,166.26C456.11,168.24 455.21,170.63 455.21,173.43C455.21,176.22 456.11,178.6 457.9,180.57C459.69,182.52 461.9,183.5 464.53,183.5C467.15,183.5 469.36,182.52 471.15,180.57C472.94,178.6 473.84,176.22 473.85,173.43ZM508.87,157.91L515.88,157.91L515.88,189.3L508.87,189.3L493.92,169.63L493.92,189.3L486.91,189.3L486.91,157.91L493.47,157.91L508.87,178.12L508.87,157.91ZM553.78,186.61C551.26,188.64 548.35,189.66 545.05,189.66C541.74,189.67 539.02,188.82 536.9,187.13C534.77,185.43 533.71,183.11 533.7,180.18C533.7,176.89 535.9,173.98 540.3,171.43C539.31,170.23 538.6,169.18 538.15,168.27C537.7,167.35 537.48,166.28 537.48,165.05C537.48,162.51 538.4,160.57 540.25,159.22C542.08,157.87 544.25,157.2 546.77,157.19C549.28,157.19 551.43,157.84 553.22,159.15C555,160.45 555.89,162.27 555.89,164.6C555.89,167.54 553.75,170.26 549.46,172.77C551.14,174.87 552.4,176.38 553.24,177.31C553.99,175.93 554.55,174.48 554.94,172.96L560.19,176.72C559.51,178.61 558.68,180.37 557.69,181.98L562.13,186.38L557.69,190.6L553.78,186.61ZM541.7,183.02C542.56,183.71 543.68,184.05 545.07,184.05C546.44,184.05 547.92,183.39 549.51,182.07C547.33,179.77 545.44,177.68 543.85,175.79C541.54,177.23 540.39,178.77 540.39,180.41C540.39,181.46 540.83,182.33 541.7,183.02ZM546.77,162.49C546.11,162.49 545.52,162.72 545,163.19C544.47,163.65 544.21,164.28 544.21,165.08C544.21,165.87 544.81,167.01 546.01,168.51C548.25,167.31 549.37,166.19 549.37,165.14C549.38,164.27 549.11,163.62 548.56,163.17C548.03,162.72 547.44,162.49 546.77,162.49ZM601.38,157.91L601.38,164.15L585.75,164.15L585.75,170.62L599.81,170.62L599.81,176.6L585.75,176.6L585.75,183.11L601.87,183.11L601.87,189.31L578.75,189.31L578.75,157.91L601.38,157.91ZM630.08,157.91L637.09,157.91L637.09,189.31L630.08,189.31L615.13,169.63L615.13,189.31L608.12,189.31L608.12,157.91L614.68,157.91L630.08,178.12L630.08,157.91ZM656.39,177.9L664.39,157.92L671.98,157.92L659.36,189.3L653.42,189.3L640.8,157.92L648.39,157.92L656.39,177.9ZM682.71,157.91L682.71,189.3L675.7,189.3L675.7,157.91L682.71,157.91ZM715.9,168.34C715.9,173.37 713.91,176.61 709.92,178.08L717.87,189.3L709.24,189.3L702.29,179.29L697.43,179.29L697.43,189.3L690.44,189.3L690.44,157.91L702.33,157.91C707.21,157.92 710.69,158.74 712.78,160.38C714.86,162.03 715.9,164.69 715.9,168.34ZM707.45,172.06C708.32,171.28 708.76,170.04 708.76,168.35C708.76,166.66 708.31,165.51 707.41,164.88C706.51,164.25 704.94,163.93 702.69,163.93L697.43,163.93L697.43,173.22L702.55,173.22C704.96,173.22 706.59,172.83 707.45,172.06ZM749.17,184.97C746,188.07 742.09,189.62 737.44,189.61C732.81,189.62 728.91,188.07 725.73,184.97C722.56,181.87 720.97,178.02 720.97,173.41C720.97,168.8 722.56,164.94 725.73,161.84C728.91,158.75 732.81,157.2 737.44,157.19C742.09,157.2 746,158.75 749.17,161.84C752.34,164.94 753.93,168.8 753.93,173.41C753.93,178.02 752.34,181.87 749.17,184.97ZM746.79,173.43C746.79,170.63 745.89,168.24 744.1,166.26C742.3,164.28 740.09,163.29 737.48,163.29C734.85,163.29 732.64,164.28 730.85,166.26C729.05,168.24 728.15,170.63 728.15,173.43C728.15,176.22 729.05,178.6 730.85,180.57C732.64,182.52 734.85,183.5 737.48,183.5C740.09,183.5 742.3,182.52 744.1,180.57C745.89,178.6 746.79,176.22 746.79,173.43ZM781.82,157.91L788.83,157.91L788.83,189.3L781.82,189.3L766.87,169.63L766.87,189.3L759.86,189.3L759.86,157.91L766.42,157.91L781.82,178.12L781.82,157.91ZM824.66,169.54L816.17,186.7L812,186.7L803.55,169.54L803.55,189.3L796.55,189.3L796.55,157.91L806.02,157.91L814.1,175.16L822.23,157.91L831.67,157.91L831.67,189.3L824.66,189.3L824.66,169.54ZM862.02,157.91L862.02,164.15L846.39,164.15L846.39,170.62L860.45,170.62L860.45,176.59L846.39,176.59L846.39,183.11L862.52,183.11L862.52,189.3L839.39,189.3L839.39,157.91L862.02,157.91ZM890.72,157.91L897.73,157.91L897.73,189.3L890.72,189.3L875.77,169.63L875.77,189.3L868.76,189.3L868.76,157.91L875.32,157.91L890.72,178.12L890.72,157.91ZM918.74,163.98L918.74,189.31L911.73,189.31L911.73,163.98L902.85,163.98L902.85,157.92L927.64,157.92L927.64,163.98L918.74,163.98ZM952.83,189.31L949.91,182.52L936.75,182.52L933.83,189.31L926.38,189.31L939.93,157.91L946.72,157.91L960.28,189.31L952.83,189.31ZM943.35,167.25L939.4,176.37L947.26,176.37L943.35,167.25ZM963.92,189.3L963.92,157.91L970.93,157.91L970.93,183.06L984.31,183.06L984.31,189.3L963.92,189.3Z" style="fill:white;"/>
                </g>
            </g>
        </g>
    </g>
</svg>
